<svg width="32" height="40" viewBox="0 0 32 40" fill="none" xmlns="http://www.w3.org/2000/svg">
<g clip-path="url(#clip0_67_9555)">
<path d="M16.4987 23.9559C20.7269 23.9559 24.1654 20.5174 24.1654 16.2892C24.1654 12.0611 20.7269 8.62256 16.4987 8.62256C12.2705 8.62256 8.83203 12.0611 8.83203 16.2892C8.83203 20.5174 12.2705 23.9559 16.4987 23.9559ZM16.4987 12.4559C18.6128 12.4559 20.332 14.1751 20.332 16.2892C20.332 18.4033 18.6128 20.1226 16.4987 20.1226C14.3846 20.1226 12.6654 18.4033 12.6654 16.2892C12.6654 14.1751 14.3846 12.4559 16.4987 12.4559Z" fill="white"/>
<path d="M15.3898 38.9329C15.7142 39.1645 16.1029 39.2891 16.5015 39.2891C16.9001 39.2891 17.2887 39.1645 17.6131 38.9329C18.1958 38.5208 31.8904 28.6327 31.8348 16.2894C31.8348 7.83497 24.9559 0.956055 16.5015 0.956055C8.04705 0.956055 1.16814 7.83497 1.16814 16.2798C1.11255 28.6327 14.8071 38.5208 15.3898 38.9329ZM16.5015 4.78939C22.8437 4.78939 28.0015 9.94714 28.0015 16.299C28.0417 24.8051 19.5911 32.4431 16.5015 34.9481C13.4137 32.4411 4.96122 24.8013 5.00147 16.2894C5.00147 9.94714 10.1592 4.78939 16.5015 4.78939Z" fill="white"/>
</g>
<defs>
<clipPath id="clip0_67_9555">
<rect width="32" height="39" fill="white" transform="translate(0 0.303223)"/>
</clipPath>
</defs>
</svg>
